<?xml version="1.0" encoding="UTF-8" standalone="no"?>
<!DOCTYPE svg PUBLIC "-//W3C//DTD SVG 1.1//EN" "http://www.w3.org/Graphics/SVG/1.1/DTD/svg11.dtd">
<svg xmlns="http://www.w3.org/2000/svg" width="48" height="48" viewBox="0 0 48 48">
  <path d="M40.16 24q0-.84-.57-1.4L25.44 8.43q-.57-.57-1.41-.57t-1.4.57l-2.85 2.84q-.56.56-.56 1.4 0 .85.56 1.41l5.9 5.91H10q-.82 0-1.4.6-.6.59-.6 1.4v4q0 .81.6 1.4.58.6 1.4.6h15.69l-5.91 5.9q-.6.6-.6 1.41 0 .82.6 1.4l2.84 2.85q.57.57 1.41.57t1.4-.57L39.6 25.41q.57-.57.57-1.41zM48 24q0 6.53-3.22 12.05-3.22 5.51-8.73 8.73Q30.53 48 24 48q-6.53 0-12.05-3.22-5.51-3.21-8.73-8.73Q0 30.53 0 24q0-6.53 3.22-12.05 3.22-5.52 8.73-8.73Q17.47 0 24 0q6.53 0 12.05 3.22 5.51 3.22 8.73 8.73Q48 17.47 48 24Z"/>
</svg>
