<svg xmlns="http://www.w3.org/2000/svg" width="32" height="32"><path fill="#086eb8" d="M0 0h32v32H0z"/><circle cx="16" cy="16" r="14" fill="#fff"/><g style="stroke-width:1.3853"><path fill="#e44d26" d="M36 0h28l-2.5 28.5L50 32l-11.5-3.5" style="stroke-width:1.77805" transform="translate(-20.1 6.43) scale(.72187)"/><path fill="#f16529" d="M50 2h12l-2.5 24.75L50 29.5" style="stroke-width:1.77805" transform="translate(-20.1 6.43) scale(.72187)"/><path fill="#ebebeb" d="m50 13-4-.25L45.25 5H40.5l2 19.5 4.5 1-.75-7.75L50 18" style="stroke-width:1.77805" transform="translate(-20.1 6.43) scale(.72187)"/><path fill="#fff" d="m50 13 4-.25.75-7.75h4.75l-2 19.5-4.5 1 .75-7.75L50 18" style="stroke-width:1.77805" transform="translate(-20.1 6.43) scale(.72187)"/></g><path stroke="#086eb8" d="M16 2v28m0-14h14"/></svg>